<svg xmlns="http://www.w3.org/2000/svg" xmlns:xlink="http://www.w3.org/1999/xlink" viewBox="0 0 583.38 110.61"><defs><style>.cls-1{fill:url(#grd_3);}.cls-2{fill:url(#grd_3-2);}.cls-3{fill:url(#grd_3-3);}.cls-4{fill:url(#grd_7);}.cls-5{fill:url(#grd_7-2);}.cls-6{fill:url(#grd_7-3);}.cls-7{fill:url(#grd_7-4);}.cls-8{fill:url(#grd_7-5);}.cls-9{fill:url(#grd_7-6);}.cls-10{fill:url(#grd_7-7);}.cls-11{fill:url(#grd_7-8);}</style><linearGradient id="grd_3" y1="48.61" x2="90.78" y2="48.61" gradientTransform="matrix(1, 0, 0, -1, 0, 112)" gradientUnits="userSpaceOnUse"><stop offset="0" stop-color="#97e6ab"/><stop offset="1" stop-color="#68e7fa"/></linearGradient><linearGradient id="grd_3-2" x1="16.99" y1="62.61" x2="107.79" y2="62.61" xlink:href="#grd_3"/><linearGradient id="grd_3-3" x1="7.77" y1="100.84" x2="23.02" y2="100.84" xlink:href="#grd_3"/><linearGradient id="grd_7" x1="134.5" y1="54.58" x2="217.56" y2="54.58" gradientUnits="userSpaceOnUse"><stop offset="0" stop-color="#fff"/><stop offset="1" stop-color="#fff"/></linearGradient><linearGradient id="grd_7-2" x1="226.01" y1="53.99" x2="281.02" y2="53.99" xlink:href="#grd_7"/><linearGradient id="grd_7-3" x1="290.18" y1="53.87" x2="352.26" y2="53.87" xlink:href="#grd_7"/><linearGradient id="grd_7-4" x1="363.39" y1="54.7" x2="421.4" y2="54.7" xlink:href="#grd_7"/><linearGradient id="grd_7-5" x1="432.01" y1="6.61" x2="440.65" y2="6.61" xlink:href="#grd_7"/><linearGradient id="grd_7-6" x1="434.23" y1="53.93" x2="438.42" y2="53.93" xlink:href="#grd_7"/><linearGradient id="grd_7-7" x1="455.83" y1="53.16" x2="508.74" y2="53.16" xlink:href="#grd_7"/><linearGradient id="grd_7-8" x1="521.17" y1="66.85" x2="583.38" y2="66.85" xlink:href="#grd_7"/></defs><g id="레이어_2" data-name="레이어 2"><g id="레이어_1-2" data-name="레이어 1"><g id="레이어_2-2" data-name="레이어 2-2"><g id="격리_모드" data-name="격리 모드"><path class="cls-1" d="M85.11,63.4a44.9,44.9,0,0,1-.37,5.68l.1-.76a42.3,42.3,0,0,1-3,10.83l.29-.67A43.92,43.92,0,0,1,76.66,88l.44-.57a43.28,43.28,0,0,1-7.71,7.71L70,94.7a43.28,43.28,0,0,1-9.48,5.53l.68-.28a43,43,0,0,1-10.84,2.94l.76-.1a43.2,43.2,0,0,1-11.36,0l.76.1A42.76,42.76,0,0,1,29.64,100l.68.28a42.53,42.53,0,0,1-9.47-5.53l.56.44a43,43,0,0,1-7.71-7.71l.45.57a42.47,42.47,0,0,1-5.54-9.48l.29.68a42.07,42.07,0,0,1-3-10.84l.1.76A43.87,43.87,0,0,1,6,57.73l-.1.75a42,42,0,0,1,3-10.83l-.29.68a42.47,42.47,0,0,1,5.54-9.48l-.45.57a43.28,43.28,0,0,1,7.71-7.71l-.56.45a42.18,42.18,0,0,1,9.47-5.54l-.68.28A42.58,42.58,0,0,1,40.47,24l-.75.1a43.13,43.13,0,0,1,11.35,0l-.75-.1a42.84,42.84,0,0,1,10.83,2.9l-.67-.28A43,43,0,0,1,70,32.15l-.56-.44a43.62,43.62,0,0,1,7.71,7.71l-.44-.57a43.81,43.81,0,0,1,5.52,9.48l-.29-.68a43.24,43.24,0,0,1,3,10.83l-.1-.75a44.91,44.91,0,0,1,.38,5.68,2.83,2.83,0,0,0,5.66,0h0a45.08,45.08,0,0,0-8.24-26.08A47.18,47.18,0,0,0,72.72,27.2a45.3,45.3,0,0,0-62.19,7.16A46.55,46.55,0,0,0,3.29,46.5a45.47,45.47,0,0,0,29.9,60.62,46.44,46.44,0,0,0,7.22,1.37A45.35,45.35,0,0,0,86,83.75a44.82,44.82,0,0,0,4.23-13.11,50.25,50.25,0,0,0,.59-7.24,2.84,2.84,0,0,0-5.67,0Z"/><path class="cls-2" d="M102.09,49.39a44.9,44.9,0,0,1-.37,5.68l.1-.75a43.23,43.23,0,0,1-3,10.83l.29-.68A43.63,43.63,0,0,1,93.62,74l.45-.57a43.62,43.62,0,0,1-7.71,7.71l.56-.44a43,43,0,0,1-9.47,5.53l.67-.28a42.92,42.92,0,0,1-10.83,2.94l.76-.1a43.2,43.2,0,0,1-11.36,0l.76.1a42,42,0,0,1-10.83-3l.67.29a42.75,42.75,0,0,1-9.47-5.53l.56.44a43,43,0,0,1-7.71-7.71l.45.57a42.47,42.47,0,0,1-5.54-9.48l.29.68a42.07,42.07,0,0,1-3-10.84l.1.76a44.08,44.08,0,0,1,0-11.36l-.1.76a42.59,42.59,0,0,1,3-10.84l-.29.68a42.21,42.21,0,0,1,5.53-9.47l-.44.56a44,44,0,0,1,7.71-7.71l-.57.45a42.25,42.25,0,0,1,9.48-5.54l-.68.29a42.36,42.36,0,0,1,10.84-3l-.76.1A44.3,44.3,0,0,1,68,10l-.75-.1a42.63,42.63,0,0,1,10.83,3l-.67-.29a42.63,42.63,0,0,1,9.47,5.54l-.56-.45a44.65,44.65,0,0,1,7.71,7.71l-.45-.56a43.42,43.42,0,0,1,5.54,9.47l-.29-.68a43,43,0,0,1,3,10.84l-.1-.76a46.83,46.83,0,0,1,.37,5.68,2.84,2.84,0,0,0,5.67,0,45.84,45.84,0,0,0-2.19-13.9,45,45,0,0,0-6.07-12.16A47.41,47.41,0,0,0,89.72,13.2a45.3,45.3,0,0,0-62.19,7.17A46.44,46.44,0,0,0,20.26,32.5a44.57,44.57,0,0,0-3.14,13.56A45.3,45.3,0,0,0,43.45,90.64a43.73,43.73,0,0,0,14,3.85,45.58,45.58,0,0,0,14.22-.67A45,45,0,0,0,84.47,89a45.55,45.55,0,0,0,18.47-19.3,44.8,44.8,0,0,0,4.22-13.11,48.88,48.88,0,0,0,.6-7.24,2.84,2.84,0,1,0-5.67,0Z"/><path class="cls-3" d="M23,11.17S15.39,10.3,15.39,0c0,10.3-7.62,11.17-7.62,11.17s7.62.86,7.62,11.16C15.39,12,23,11.17,23,11.17Z"/></g></g><path class="cls-4" d="M134.5,24.4h4.32L163,75.87l11.39-24-12.7-27.24h4.19l10.6,23.18L187.4,24.4h3.93L178.5,51.9l11.26,24.23,24-51.6h3.8L189.63,84.77,176.27,56.09,162.78,84.77Z"/><path class="cls-5" d="M258.11,84.9h-1.17q-12.45,0-21.68-9.36T226,53.73a29.3,29.3,0,0,1,9.17-21.54,30.92,30.92,0,0,1,22.65-9.1q13.49,0,23.18,10.74L239.91,74.42q8.52,6.83,16.37,6.81a27.57,27.57,0,0,0,14.08-3.6A31.25,31.25,0,0,0,280.64,68v6.68Q271.34,84.91,258.11,84.9Zm-1.37-58.14q-10.41,0-18.46,8.05t-8.06,18.53a26.78,26.78,0,0,0,6.94,18.34l38.11-37.85A27.4,27.4,0,0,0,256.74,26.76Z"/><path class="cls-6" d="M352.26,24.4V83.33h-4.19V68.66a27.53,27.53,0,0,1-11,11.79,30.41,30.41,0,0,1-15.71,4.32,30.07,30.07,0,0,1-22-9.1,29.64,29.64,0,0,1-9.17-21.8,29.61,29.61,0,0,1,9.17-21.81,30.11,30.11,0,0,1,22-9.1,31.54,31.54,0,0,1,16,4.45A24.19,24.19,0,0,1,348.07,39.2V24.4ZM294.38,54a26,26,0,0,0,8.06,19,26.07,26.07,0,0,0,19.12,8,25.49,25.49,0,0,0,18.92-8,27.17,27.17,0,0,0-.07-38.3,25.55,25.55,0,0,0-18.92-8.12,25.86,25.86,0,0,0-19.05,8.18A26.45,26.45,0,0,0,294.38,54Z"/><path class="cls-7" d="M417.61,24.4h3.79L392.47,85,363.39,24.4H368L392.9,76.13Z"/><path class="cls-8" d="M436.77,10.65h-.44a3.71,3.71,0,0,1-3.68-1.71,4.56,4.56,0,0,1,0-4.65,3.74,3.74,0,0,1,3.73-1.71A3.67,3.67,0,0,1,440,4.27a4.61,4.61,0,0,1,0,4.65A3.67,3.67,0,0,1,436.77,10.65Zm-.44-1h.05a2.79,2.79,0,0,0,2.78-1.24,3.5,3.5,0,0,0,0-3.59,2.77,2.77,0,0,0-2.78-1.24,2.84,2.84,0,0,0-2.88,1.24,3.46,3.46,0,0,0,0,3.59,2.76,2.76,0,0,0,2.78,1.24Z"/><rect class="cls-9" x="434.23" y="24.53" width="4.19" height="58.8"/><path class="cls-10" d="M460,83.33h-4.19V24.4H460V36.32Q466.7,23,482.82,23a24.91,24.91,0,0,1,18.46,7.6A25.4,25.4,0,0,1,508.74,49V83.33h-4.19V49a22.11,22.11,0,0,0-6.35-15.71,20.49,20.49,0,0,0-15.38-6.68,22.11,22.11,0,0,0-15.91,6.68A21.15,21.15,0,0,0,460,49Z"/><path class="cls-11" d="M579.19,24.4h4.19V77.83q0,15.19-8.38,24t-22,8.78a33.13,33.13,0,0,1-14.53-3.41,28.15,28.15,0,0,1-11-8.9v-6a27.15,27.15,0,0,0,10.67,10.48A29.5,29.5,0,0,0,553,106.9q11.52,0,18.86-7.79t7.33-21.28V69.06A26.71,26.71,0,0,1,568,80.58a31.37,31.37,0,0,1-15.71,4.32,30.07,30.07,0,0,1-22-9.1A29.59,29.59,0,0,1,521.18,54a29.61,29.61,0,0,1,9.17-21.81,30.11,30.11,0,0,1,22-9.1,31.44,31.44,0,0,1,15.91,4.26,26.32,26.32,0,0,1,10.93,11.72ZM525.37,54a26.19,26.19,0,0,0,8.06,19.18,26.05,26.05,0,0,0,19.11,8,25.51,25.51,0,0,0,18.93-8A26.59,26.59,0,0,0,579.32,54a26.59,26.59,0,0,0-7.85-19.19,25.51,25.51,0,0,0-18.93-8,26.08,26.08,0,0,0-19.11,8.05A26.17,26.17,0,0,0,525.37,54Z"/></g></g></svg>