<?xml version="1.0" encoding="utf-8"?>
<!-- Generator: Adobe Illustrator 24.3.0, SVG Export Plug-In . SVG Version: 6.00 Build 0)  -->
<svg version="1.1" id="레이어_1" xmlns="http://www.w3.org/2000/svg" xmlns:xlink="http://www.w3.org/1999/xlink" x="0px"
	 y="0px" viewBox="0 0 570.7 576.2" style="enable-background:new 0 0 570.7 576.2;" xml:space="preserve">
<style type="text/css">
	.st0{fill:url(#SVGID_1_);}
	.st1{fill:url(#SVGID_2_);}
	.st2{fill:url(#SVGID_3_);}
</style>
<g id="레이어_2_1_">
	<g id="격리_모드">
		<linearGradient id="SVGID_1_" gradientUnits="userSpaceOnUse" x1="3.458119e-02" y1="335.7918" x2="480.8204" y2="335.7918">
			<stop  offset="0" style="stop-color:#97E6AB"/>
			<stop  offset="1" style="stop-color:#68E7FA"/>
		</linearGradient>
		<path class="st0" d="M450.8,335.8c0,10.1-0.7,20.1-2,30.1l0.5-4c-2.7,19.7-7.9,39-15.6,57.4l1.5-3.6
			c-7.6,17.9-17.4,34.8-29.2,50.2l2.3-3c-11.8,15.3-25.6,29-40.8,40.8l3-2.4c-15.4,11.9-32.3,21.7-50.2,29.3l3.6-1.5
			c-18.4,7.7-37.7,12.9-57.4,15.6l4-0.5c-20,2.6-40.2,2.6-60.1,0l4,0.5c-19.7-2.7-39-7.9-57.4-15.6l3.6,1.5
			c-17.9-7.6-34.8-17.4-50.2-29.3l3,2.4c-15.3-11.8-29-25.6-40.8-40.8l2.3,3c-11.9-15.4-21.7-32.3-29.3-50.2l1.5,3.6
			c-7.7-18.4-13-37.6-15.6-57.4l0.5,4c-2.6-20-2.6-40.2,0-60.1l-0.5,4c2.7-19.7,7.9-39,15.6-57.4l-1.5,3.6
			c7.6-17.9,17.4-34.8,29.3-50.2l-2.3,3c11.8-15.3,25.6-29,40.8-40.8l-3,2.4c15.4-11.9,32.3-21.8,50.2-29.4l-3.6,1.5
			c18.4-7.7,37.7-12.9,57.4-15.6l-4,0.5c20-2.6,40.2-2.6,60.1,0l-4-0.5c19.7,2.7,39,7.9,57.4,15.6l-3.6-1.5
			c17.9,7.6,34.8,17.4,50.2,29.3l-3-2.4c15.3,11.8,29,25.6,40.8,40.8l-2.3-3c11.9,15.4,21.7,32.3,29.3,50.2l-1.5-3.6
			c7.7,18.4,13,37.6,15.6,57.4l-0.5-4C450.1,315.8,450.8,325.8,450.8,335.8c0,7.9,6.9,15.4,15,15s15-6.6,15-15
			c0.1-49.4-15.2-97.7-43.7-138.1c-14.5-20.4-32.1-38.5-52-53.7C282.9,66.6,137.7,83.3,55.7,182c-16,19.4-28.9,41.1-38.4,64.3
			c-9.3,22.9-14.9,47.2-16.6,71.9c-7.4,100.1,48.2,194.3,139.5,236.1c11.5,5.3,23.4,9.7,35.6,13.1c12.6,3.4,25.4,5.8,38.3,7.3
			c99.9,11.1,196.2-41.2,241.3-131.1c11-21.9,18.5-45.3,22.4-69.5c2-12.7,3.1-25.5,3.1-38.4c0-7.9-6.9-15.4-15-15
			S450.8,327.4,450.8,335.8z"/>
		<linearGradient id="SVGID_2_" gradientUnits="userSpaceOnUse" x1="89.954" y1="261.6115" x2="570.79" y2="261.6115">
			<stop  offset="0" style="stop-color:#97E6AB"/>
			<stop  offset="1" style="stop-color:#68E7FA"/>
		</linearGradient>
		<path class="st1" d="M540.7,261.6c0,10.1-0.7,20.1-2,30.1l0.5-4c-2.7,19.7-7.9,39-15.6,57.4l1.5-3.6
			c-7.6,17.9-17.4,34.8-29.3,50.2l2.4-3c-11.8,15.3-25.6,29-40.8,40.8l3-2.3c-15.4,11.9-32.3,21.7-50.2,29.3l3.6-1.5
			c-18.4,7.7-37.6,13-57.4,15.6l4-0.5c-20,2.6-40.2,2.6-60.1,0l4,0.5c-19.7-2.7-39-7.9-57.4-15.6l3.6,1.5
			c-17.9-7.6-34.8-17.4-50.2-29.3l3,2.3c-15.3-11.8-29-25.6-40.8-40.8l2.4,3c-11.9-15.4-21.7-32.3-29.3-50.2l1.5,3.6
			c-7.7-18.4-13-37.7-15.6-57.4l0.5,4c-2.6-20-2.6-40.2,0-60.1l-0.5,4c2.7-19.7,7.9-39,15.6-57.4l-1.5,3.6
			c7.6-17.9,17.4-34.8,29.3-50.2l-2.4,3c11.8-15.3,25.6-29,40.8-40.8l-3,2.3c15.4-11.9,32.3-21.7,50.2-29.3l-3.6,1.5
			c18.4-7.7,37.7-12.9,57.4-15.6l-4,0.5c20-2.6,40.2-2.6,60.1,0l-4-0.5c19.7,2.7,39,7.9,57.4,15.6l-3.6-1.5
			c17.9,7.6,34.8,17.4,50.2,29.3l-3-2.3c15.3,11.8,29,25.6,40.8,40.8l-2.4-3c11.9,15.4,21.7,32.3,29.3,50.2l-1.5-3.6
			c7.7,18.4,13,37.7,15.6,57.4l-0.5-4C540.1,241.5,540.8,251.6,540.7,261.6c0.1,7.8,6.9,15.4,15.1,15s15-6.6,15-15
			c0-25-3.9-49.8-11.6-73.6c-7.4-23-18.2-44.7-32.2-64.4c-14.5-20.4-32.1-38.5-52-53.7c-102.3-77.4-247.4-60.7-329.4,38
			c-16,19.4-28.9,41.1-38.4,64.3C98,195.1,92.4,219.3,90.6,244c-1.9,25.2,0.2,50.5,6.2,75c5.8,23.6,15.1,46.1,27.7,66.9
			c25,41.3,61.8,74.1,105.6,94.2c23.3,10.8,48.3,17.7,73.9,20.4c25.1,2.8,50.5,1.6,75.3-3.5c23.9-4.9,46.8-13.5,68.1-25.3
			c42.1-23.5,76.2-59.1,97.9-102.2c11-21.9,18.5-45.3,22.4-69.4c2-12.7,3.1-25.5,3.1-38.4c0-7.8-6.9-15.4-15-15
			S540.8,253.2,540.7,261.6z"/>
		<linearGradient id="SVGID_3_" gradientUnits="userSpaceOnUse" x1="41.09" y1="59.155" x2="121.8" y2="59.155">
			<stop  offset="0" style="stop-color:#97E6AB"/>
			<stop  offset="1" style="stop-color:#68E7FA"/>
		</linearGradient>
		<path class="st2" d="M121.8,59.2c0,0-40.4-4.6-40.4-59.2c0,54.6-40.3,59.2-40.3,59.2s40.3,4.6,40.3,59.2
			C81.4,63.7,121.8,59.2,121.8,59.2z"/>
	</g>
</g>
</svg>
