<svg xmlns="http://www.w3.org/2000/svg" xmlns:xlink="http://www.w3.org/1999/xlink" viewBox="0 0 583.36 110.57"><defs><style>.cls-1{fill:url(#무제_그라디언트_5);}.cls-2{fill:url(#무제_그라디언트_5-2);}.cls-3{fill:url(#무제_그라디언트_5-3);}</style><linearGradient id="무제_그라디언트_5" y1="63.39" x2="90.76" y2="63.39" gradientUnits="userSpaceOnUse"><stop offset="0" stop-color="#97e6ab"/><stop offset="1" stop-color="#68e7fa"/></linearGradient><linearGradient id="무제_그라디언트_5-2" x1="16.97" y1="49.39" x2="107.75" y2="49.39" xlink:href="#무제_그라디언트_5"/><linearGradient id="무제_그라디언트_5-3" x1="7.75" y1="11.17" x2="22.99" y2="11.17" xlink:href="#무제_그라디언트_5"/></defs><g id="레이어_2" data-name="레이어 2"><g id="레이어_1-2" data-name="레이어 1"><g id="레이어_2-2" data-name="레이어 2"><g id="격리_모드" data-name="격리 모드"><path class="cls-1" d="M85.09,63.4a43.22,43.22,0,0,1-.37,5.68l.1-.76a42.3,42.3,0,0,1-2.95,10.83l.29-.67A43.41,43.41,0,0,1,76.64,88l.44-.57a43,43,0,0,1-7.71,7.71l.57-.44a43,43,0,0,1-9.48,5.53l.68-.28a42.88,42.88,0,0,1-10.84,2.94l.76-.1a43.2,43.2,0,0,1-11.36,0l.76.1a42.88,42.88,0,0,1-10.84-2.94l.68.28a42.75,42.75,0,0,1-9.47-5.53l.56.44a43.28,43.28,0,0,1-7.71-7.71l.45.57a42.7,42.7,0,0,1-5.54-9.48l.29.68a42.48,42.48,0,0,1-3-10.84l.1.76A44,44,0,0,1,6,57.73l-.1.75a42.41,42.41,0,0,1,3-10.83l-.29.68a42.7,42.7,0,0,1,5.54-9.48l-.45.57a43.62,43.62,0,0,1,7.71-7.71l-.56.45a42.41,42.41,0,0,1,9.47-5.54l-.68.28A42.8,42.8,0,0,1,40.45,24l-.75.1a43.13,43.13,0,0,1,11.35,0L50.3,24A42.92,42.92,0,0,1,61.13,26.9l-.67-.28a43,43,0,0,1,9.47,5.53l-.56-.44a43.28,43.28,0,0,1,7.71,7.71l-.44-.57a43.41,43.41,0,0,1,5.52,9.48l-.29-.68a42.52,42.52,0,0,1,2.95,10.83l-.1-.75a43.12,43.12,0,0,1,.38,5.68,2.83,2.83,0,1,0,5.66,0,45.08,45.08,0,0,0-8.24-26.08A46.71,46.71,0,0,0,72.7,27.2a45.31,45.31,0,0,0-62.19,7.16A46.94,46.94,0,0,0,3.27,46.5a45.34,45.34,0,0,0,23.18,58.14,45.88,45.88,0,0,0,6.72,2.48,46.66,46.66,0,0,0,7.22,1.37A45.35,45.35,0,0,0,85.94,83.75a44.62,44.62,0,0,0,4.23-13.11,48.87,48.87,0,0,0,.59-7.24,2.86,2.86,0,0,0-2.83-2.83A2.9,2.9,0,0,0,85.09,63.4Z"/><path class="cls-2" d="M102.07,49.39a43.11,43.11,0,0,1-.37,5.68l.1-.75a42.94,42.94,0,0,1-3,10.83l.29-.68A43.49,43.49,0,0,1,93.6,74l.45-.57a43.28,43.28,0,0,1-7.71,7.71l.56-.44a43,43,0,0,1-9.47,5.53l.67-.28a42.8,42.8,0,0,1-10.83,2.94l.76-.1a43.2,43.2,0,0,1-11.36,0l.76.1a42.3,42.3,0,0,1-10.83-3l.67.29a43,43,0,0,1-9.47-5.53l.56.44a43.28,43.28,0,0,1-7.71-7.71l.45.57a42.7,42.7,0,0,1-5.54-9.48l.29.68a42.48,42.48,0,0,1-3-10.84l.1.76a44.08,44.08,0,0,1,0-11.36l-.1.76a42.92,42.92,0,0,1,3-10.84l-.29.68a42.75,42.75,0,0,1,5.53-9.47l-.44.56a44,44,0,0,1,7.71-7.71l-.57.45a42.7,42.7,0,0,1,9.48-5.54l-.68.29a42.48,42.48,0,0,1,10.84-3l-.76.1A44,44,0,0,1,68,10l-.75-.1a42.41,42.41,0,0,1,10.83,3l-.67-.29a42.63,42.63,0,0,1,9.47,5.54l-.56-.45a44,44,0,0,1,7.71,7.71l-.45-.56a43.19,43.19,0,0,1,5.54,9.47l-.29-.68a42.9,42.9,0,0,1,3,10.84l-.1-.76a45,45,0,0,1,.37,5.68,2.84,2.84,0,0,0,5.67,0,45.53,45.53,0,0,0-2.19-13.9,44.67,44.67,0,0,0-6.07-12.16,47.17,47.17,0,0,0-9.81-10.14,45.3,45.3,0,0,0-62.19,7.17A46.86,46.86,0,0,0,20.24,32.5,44.64,44.64,0,0,0,17.1,46.06,45.31,45.31,0,0,0,43.43,90.64a43.77,43.77,0,0,0,14,3.85,45.57,45.57,0,0,0,14.22-.67A44.87,44.87,0,0,0,84.45,89a45.49,45.49,0,0,0,18.47-19.3,44.5,44.5,0,0,0,4.22-13.11,48.66,48.66,0,0,0,.6-7.24,2.87,2.87,0,0,0-2.83-2.83A2.9,2.9,0,0,0,102.07,49.39Z"/><path class="cls-3" d="M23,11.17S15.37,10.3,15.37,0c0,10.3-7.62,11.17-7.62,11.17s7.62.86,7.62,11.16C15.37,12,23,11.17,23,11.17Z"/></g></g><path d="M134.48,24.4h4.32L163,75.87l11.39-24-12.7-27.24h4.19l10.6,23.18L187.38,24.4h3.93L178.48,51.9l11.26,24.23,24-51.6h3.8L189.61,84.77,176.25,56.09,162.76,84.77Z"/><path d="M258.09,84.9h-1.17q-12.45,0-21.68-9.36T226,53.73a29.36,29.36,0,0,1,9.17-21.54,30.91,30.91,0,0,1,22.65-9.1q13.49,0,23.18,10.74L239.89,74.42q8.52,6.83,16.37,6.81a27.5,27.5,0,0,0,14.08-3.6A31.1,31.1,0,0,0,280.62,68v6.68Q271.32,84.91,258.09,84.9Zm-1.37-58.14q-10.41,0-18.46,8.05T230.2,53.34a26.82,26.82,0,0,0,6.94,18.34l38.11-37.85A27.43,27.43,0,0,0,256.72,26.76Z"/><path d="M352.24,24.4V83.33h-4.19V68.66a27.49,27.49,0,0,1-11,11.79,30.4,30.4,0,0,1-15.71,4.32,30.09,30.09,0,0,1-22-9.1,29.66,29.66,0,0,1-9.17-21.8,29.66,29.66,0,0,1,9.17-21.81,30.13,30.13,0,0,1,22-9.1,31.54,31.54,0,0,1,16,4.45A24.15,24.15,0,0,1,348.05,39.2V24.4ZM294.36,54a26,26,0,0,0,8.06,19,26.11,26.11,0,0,0,19.12,8,25.48,25.48,0,0,0,18.92-8,26.44,26.44,0,0,0,7.86-19.12,26.57,26.57,0,0,0-7.93-19.18,25.53,25.53,0,0,0-18.92-8.12,25.86,25.86,0,0,0-19.05,8.18A26.49,26.49,0,0,0,294.36,54Z"/><path d="M417.59,24.4h3.79L392.45,85,363.37,24.4H368l24.88,51.73Z"/><path d="M436.75,10.65l-.44,0a3.73,3.73,0,0,1-3.68-1.71,4.56,4.56,0,0,1,0-4.65,3.75,3.75,0,0,1,3.73-1.71A3.67,3.67,0,0,1,440,4.27a4.56,4.56,0,0,1,0,4.65A3.64,3.64,0,0,1,436.75,10.65Zm-.44-1h.05a2.79,2.79,0,0,0,2.78-1.24,3.5,3.5,0,0,0,0-3.59,2.77,2.77,0,0,0-2.78-1.24,2.84,2.84,0,0,0-2.88,1.24,3.5,3.5,0,0,0,0,3.59,2.77,2.77,0,0,0,2.78,1.24Z"/><rect x="434.21" y="24.53" width="4.19" height="58.8"/><path d="M460,83.33h-4.19V24.4H460V36.32Q466.68,23,482.8,23a24.88,24.88,0,0,1,18.46,7.6A25.34,25.34,0,0,1,508.72,49V83.33h-4.19V49a22.07,22.07,0,0,0-6.35-15.71,20.45,20.45,0,0,0-15.38-6.68,22.15,22.15,0,0,0-15.91,6.68A21.18,21.18,0,0,0,460,49Z"/><path d="M579.17,24.4h4.19V77.83q0,15.19-8.38,24t-22,8.78a33.14,33.14,0,0,1-14.53-3.41,28.2,28.2,0,0,1-11-8.9v-6a27.18,27.18,0,0,0,10.67,10.48A29.44,29.44,0,0,0,553,106.9q11.52,0,18.86-7.79t7.33-21.28V69.06A26.71,26.71,0,0,1,568,80.58a31.36,31.36,0,0,1-15.71,4.32,30.09,30.09,0,0,1-22-9.1A29.64,29.64,0,0,1,521.16,54a29.66,29.66,0,0,1,9.17-21.81,30.13,30.13,0,0,1,22-9.1,31.36,31.36,0,0,1,15.91,4.26,26.26,26.26,0,0,1,10.93,11.72ZM525.35,54a26.19,26.19,0,0,0,8.06,19.18,26.09,26.09,0,0,0,19.11,8,25.49,25.49,0,0,0,18.93-8A26.54,26.54,0,0,0,579.3,54a26.56,26.56,0,0,0-7.85-19.19,25.49,25.49,0,0,0-18.93-8,26.09,26.09,0,0,0-19.11,8.05A26.21,26.21,0,0,0,525.35,54Z"/></g></g></svg>