<?xml version="1.0" encoding="UTF-8" standalone="no"?>
<svg
   viewBox="0 0 643.78792 120.60735"
   version="1.1"
   id="svg11"
   sodipodi:docname="logo_text_horizontal_color_beta.svg"
   width="643.7879"
   height="120.60735"
   inkscape:version="1.4.2 (f4327f4, 2025-05-13)"
   xmlns:inkscape="http://www.inkscape.org/namespaces/inkscape"
   xmlns:sodipodi="http://sodipodi.sourceforge.net/DTD/sodipodi-0.dtd"
   xmlns:xlink="http://www.w3.org/1999/xlink"
   xmlns="http://www.w3.org/2000/svg"
   xmlns:svg="http://www.w3.org/2000/svg">
  <sodipodi:namedview
     id="namedview11"
     pagecolor="#ffffff"
     bordercolor="#000000"
     borderopacity="0.25"
     inkscape:showpageshadow="2"
     inkscape:pageopacity="0.0"
     inkscape:pagecheckerboard="0"
     inkscape:deskcolor="#d1d1d1"
     inkscape:zoom="1.0745512"
     inkscape:cx="286.16599"
     inkscape:cy="-72.123135"
     inkscape:window-width="1920"
     inkscape:window-height="991"
     inkscape:window-x="-9"
     inkscape:window-y="-9"
     inkscape:window-maximized="1"
     inkscape:current-layer="svg11" />
  <defs
     id="defs2">
    <style
       id="style1">.cls-1{fill:url(#무제_그라디언트_5);}.cls-2{fill:url(#무제_그라디언트_5-2);}.cls-3{fill:url(#무제_그라디언트_5-3);}</style>
    <linearGradient
       id="무제_그라디언트_5"
       y1="63.389999"
       x2="90.760002"
       y2="63.389999"
       gradientUnits="userSpaceOnUse">
      <stop
         offset="0"
         stop-color="#97e6ab"
         id="stop1" />
      <stop
         offset="1"
         stop-color="#68e7fa"
         id="stop2" />
    </linearGradient>
    <linearGradient
       id="무제_그라디언트_5-2"
       x1="16.969999"
       y1="49.389999"
       x2="107.75"
       y2="49.389999"
       xlink:href="#%EB%AC%B4%EC%A0%9C_%EA%B7%B8%EB%9D%BC%EB%94%94%EC%96%B8%ED%8A%B8_5" />
    <linearGradient
       id="무제_그라디언트_5-3"
       x1="7.75"
       y1="11.17"
       x2="22.99"
       y2="11.17"
       xlink:href="#%EB%AC%B4%EC%A0%9C_%EA%B7%B8%EB%9D%BC%EB%94%94%EC%96%B8%ED%8A%B8_5" />
    <linearGradient
       inkscape:collect="always"
       xlink:href="#%EB%AC%B4%EC%A0%9C_%EA%B7%B8%EB%9D%BC%EB%94%94%EC%96%B8%ED%8A%B8_5"
       id="linearGradient11"
       gradientUnits="userSpaceOnUse"
       y1="63.389999"
       x2="90.760002"
       y2="63.389999" />
  </defs>
  <g
     id="레이어_2"
     data-name="레이어 2"
     transform="translate(0.00541756,9.997244)">
    <g
       id="레이어_1-2"
       data-name="레이어 1">
      <g
         id="레이어_2-2"
         data-name="레이어 2">
        <g
           id="격리_모드"
           data-name="격리 모드">
          <path
             class="cls-1"
             d="m 85.09,63.4 a 43.22,43.22 0 0 1 -0.37,5.68 l 0.1,-0.76 a 42.3,42.3 0 0 1 -2.95,10.83 l 0.29,-0.67 A 43.41,43.41 0 0 1 76.64,88 l 0.44,-0.57 a 43,43 0 0 1 -7.71,7.71 l 0.57,-0.44 a 43,43 0 0 1 -9.48,5.53 l 0.68,-0.28 a 42.88,42.88 0 0 1 -10.84,2.94 l 0.76,-0.1 a 43.2,43.2 0 0 1 -11.36,0 l 0.76,0.1 A 42.88,42.88 0 0 1 29.62,99.95 l 0.68,0.28 A 42.75,42.75 0 0 1 20.83,94.7 l 0.56,0.44 A 43.28,43.28 0 0 1 13.68,87.43 L 14.13,88 A 42.7,42.7 0 0 1 8.59,78.52 l 0.29,0.68 a 42.48,42.48 0 0 1 -3,-10.84 l 0.1,0.76 A 44,44 0 0 1 6,57.73 l -0.1,0.75 a 42.41,42.41 0 0 1 3,-10.83 l -0.29,0.68 a 42.7,42.7 0 0 1 5.54,-9.48 l -0.45,0.57 a 43.62,43.62 0 0 1 7.71,-7.71 l -0.56,0.45 a 42.41,42.41 0 0 1 9.47,-5.54 L 29.64,26.9 A 42.8,42.8 0 0 1 40.45,24 l -0.75,0.1 a 43.13,43.13 0 0 1 11.35,0 L 50.3,24 a 42.92,42.92 0 0 1 10.83,2.9 l -0.67,-0.28 a 43,43 0 0 1 9.47,5.53 l -0.56,-0.44 a 43.28,43.28 0 0 1 7.71,7.71 l -0.44,-0.57 a 43.41,43.41 0 0 1 5.52,9.48 l -0.29,-0.68 a 42.52,42.52 0 0 1 2.95,10.83 l -0.1,-0.75 a 43.12,43.12 0 0 1 0.38,5.68 2.83,2.83 0 1 0 5.66,0 A 45.08,45.08 0 0 0 82.52,37.33 46.71,46.71 0 0 0 72.7,27.2 45.31,45.31 0 0 0 10.51,34.36 46.94,46.94 0 0 0 3.27,46.5 a 45.34,45.34 0 0 0 23.18,58.14 45.88,45.88 0 0 0 6.72,2.48 46.66,46.66 0 0 0 7.22,1.37 45.35,45.35 0 0 0 45.55,-24.74 44.62,44.62 0 0 0 4.23,-13.11 48.87,48.87 0 0 0 0.59,-7.24 2.86,2.86 0 0 0 -2.83,-2.83 2.9,2.9 0 0 0 -2.84,2.83 z"
             id="path2"
             style="fill:url(#linearGradient11)" />
          <path
             class="cls-2"
             d="m 102.07,49.39 a 43.11,43.11 0 0 1 -0.37,5.68 l 0.1,-0.75 a 42.94,42.94 0 0 1 -3,10.83 l 0.29,-0.68 A 43.49,43.49 0 0 1 93.6,74 l 0.45,-0.57 a 43.28,43.28 0 0 1 -7.71,7.71 L 86.9,80.7 a 43,43 0 0 1 -9.47,5.53 l 0.67,-0.28 a 42.8,42.8 0 0 1 -10.83,2.94 l 0.76,-0.1 a 43.2,43.2 0 0 1 -11.36,0 l 0.76,0.1 a 42.3,42.3 0 0 1 -10.83,-3 l 0.67,0.29 A 43,43 0 0 1 37.8,80.65 l 0.56,0.44 a 43.28,43.28 0 0 1 -7.71,-7.71 l 0.45,0.57 a 42.7,42.7 0 0 1 -5.54,-9.48 l 0.29,0.68 a 42.48,42.48 0 0 1 -3,-10.84 l 0.1,0.76 a 44.08,44.08 0 0 1 0,-11.36 l -0.1,0.76 a 42.92,42.92 0 0 1 3,-10.84 l -0.29,0.68 a 42.75,42.75 0 0 1 5.53,-9.47 l -0.44,0.56 a 44,44 0 0 1 7.71,-7.71 l -0.57,0.45 a 42.7,42.7 0 0 1 9.48,-5.54 l -0.68,0.29 a 42.48,42.48 0 0 1 10.84,-3 l -0.76,0.1 A 44,44 0 0 1 68,10 L 67.25,9.9 a 42.41,42.41 0 0 1 10.83,3 l -0.67,-0.29 a 42.63,42.63 0 0 1 9.47,5.54 L 86.32,17.7 a 44,44 0 0 1 7.71,7.71 l -0.45,-0.56 a 43.19,43.19 0 0 1 5.54,9.47 l -0.29,-0.68 a 42.9,42.9 0 0 1 3,10.84 l -0.1,-0.76 a 45,45 0 0 1 0.37,5.68 2.84,2.84 0 0 0 5.67,0 A 45.53,45.53 0 0 0 105.58,35.5 44.67,44.67 0 0 0 99.51,23.34 47.17,47.17 0 0 0 89.7,13.2 45.3,45.3 0 0 0 27.51,20.37 46.86,46.86 0 0 0 20.24,32.5 44.64,44.64 0 0 0 17.1,46.06 a 45.31,45.31 0 0 0 26.33,44.58 43.77,43.77 0 0 0 14,3.85 45.57,45.57 0 0 0 14.22,-0.67 44.87,44.87 0 0 0 12.8,-4.82 45.49,45.49 0 0 0 18.47,-19.3 44.5,44.5 0 0 0 4.22,-13.11 48.66,48.66 0 0 0 0.6,-7.24 2.87,2.87 0 0 0 -2.83,-2.83 2.9,2.9 0 0 0 -2.84,2.87 z"
             id="path3"
             style="fill:url(#%EB%AC%B4%EC%A0%9C_%EA%B7%B8%EB%9D%BC%EB%94%94%EC%96%B8%ED%8A%B8_5-2)" />
          <path
             class="cls-3"
             d="m 23,11.17 c 0,0 -7.63,-0.87 -7.63,-11.17 0,10.3 -7.62,11.17 -7.62,11.17 0,0 7.62,0.86 7.62,11.16 C 15.37,12 23,11.17 23,11.17 Z"
             id="path4"
             style="fill:url(#%EB%AC%B4%EC%A0%9C_%EA%B7%B8%EB%9D%BC%EB%94%94%EC%96%B8%ED%8A%B8_5-3)" />
        </g>
      </g>
      <path
         d="m 134.48,24.4 h 4.32 l 24.2,51.47 11.39,-24 -12.7,-27.24 h 4.19 l 10.6,23.18 10.9,-23.41 h 3.93 l -12.83,27.5 11.26,24.23 24,-51.6 h 3.8 L 189.61,84.77 176.25,56.09 162.76,84.77 Z"
         id="path5" />
      <path
         d="m 258.09,84.9 h -1.17 q -12.45,0 -21.68,-9.36 -9.23,-9.36 -9.24,-21.81 a 29.36,29.36 0 0 1 9.17,-21.54 30.91,30.91 0 0 1 22.65,-9.1 q 13.49,0 23.18,10.74 l -41.11,40.59 q 8.52,6.83 16.37,6.81 a 27.5,27.5 0 0 0 14.08,-3.6 31.1,31.1 0 0 0 10.28,-9.63 v 6.68 q -9.3,10.23 -22.53,10.22 z m -1.37,-58.14 q -10.41,0 -18.46,8.05 -8.05,8.05 -8.06,18.53 a 26.82,26.82 0 0 0 6.94,18.34 l 38.11,-37.85 a 27.43,27.43 0 0 0 -18.53,-7.07 z"
         id="path6" />
      <path
         d="m 352.24,24.4 v 58.93 h -4.19 V 68.66 a 27.49,27.49 0 0 1 -11,11.79 30.4,30.4 0 0 1 -15.71,4.32 30.09,30.09 0 0 1 -22,-9.1 29.66,29.66 0 0 1 -9.17,-21.8 29.66,29.66 0 0 1 9.17,-21.81 30.13,30.13 0 0 1 22,-9.1 31.54,31.54 0 0 1 16,4.45 24.15,24.15 0 0 1 10.71,11.79 V 24.4 Z M 294.36,54 a 26,26 0 0 0 8.06,19 26.11,26.11 0 0 0 19.12,8 25.48,25.48 0 0 0 18.92,-8 26.44,26.44 0 0 0 7.86,-19.12 26.57,26.57 0 0 0 -7.93,-19.18 25.53,25.53 0 0 0 -18.92,-8.12 25.86,25.86 0 0 0 -19.05,8.18 26.49,26.49 0 0 0 -8.06,19.24 z"
         id="path7" />
      <path
         d="m 417.59,24.4 h 3.79 L 392.45,85 363.37,24.4 H 368 l 24.88,51.73 z"
         id="path8" />
      <path
         d="m 436.75,10.65 h -0.44 a 3.73,3.73 0 0 1 -3.68,-1.71 4.56,4.56 0 0 1 0,-4.65 3.75,3.75 0 0 1 3.73,-1.71 3.67,3.67 0 0 1 3.64,1.69 4.56,4.56 0 0 1 0,4.65 3.64,3.64 0 0 1 -3.25,1.73 z m -0.44,-1 h 0.05 a 2.79,2.79 0 0 0 2.78,-1.24 3.5,3.5 0 0 0 0,-3.59 2.77,2.77 0 0 0 -2.78,-1.24 2.84,2.84 0 0 0 -2.88,1.24 3.5,3.5 0 0 0 0,3.59 2.77,2.77 0 0 0 2.78,1.24 z"
         id="path9" />
      <rect
         x="434.20999"
         y="24.530001"
         width="4.1900001"
         height="58.799999"
         id="rect9" />
      <path
         d="m 460,83.33 h -4.19 V 24.4 H 460 V 36.32 Q 466.68,23 482.8,23 a 24.88,24.88 0 0 1 18.46,7.6 25.34,25.34 0 0 1 7.46,18.4 v 34.33 h -4.19 V 49 A 22.07,22.07 0 0 0 498.18,33.29 20.45,20.45 0 0 0 482.8,26.61 22.15,22.15 0 0 0 466.89,33.29 21.18,21.18 0 0 0 460,49 Z"
         id="path10" />
      <path
         d="m 579.17,24.4 h 4.19 v 53.43 q 0,15.19 -8.38,24 -8.38,8.81 -22,8.78 a 33.14,33.14 0 0 1 -14.53,-3.41 28.2,28.2 0 0 1 -11,-8.9 v -6 a 27.18,27.18 0 0 0 10.67,10.48 29.44,29.44 0 0 0 14.88,4.12 q 11.52,0 18.86,-7.79 7.34,-7.79 7.33,-21.28 V 69.06 A 26.71,26.71 0 0 1 568,80.58 a 31.36,31.36 0 0 1 -15.71,4.32 30.09,30.09 0 0 1 -22,-9.1 29.64,29.64 0 0 1 -9.13,-21.8 29.66,29.66 0 0 1 9.17,-21.81 30.13,30.13 0 0 1 22,-9.1 31.36,31.36 0 0 1 15.91,4.26 26.26,26.26 0 0 1 10.93,11.72 z M 525.35,54 a 26.19,26.19 0 0 0 8.06,19.18 26.09,26.09 0 0 0 19.11,8 25.49,25.49 0 0 0 18.93,-8 26.54,26.54 0 0 0 7.85,-19.18 26.56,26.56 0 0 0 -7.85,-19.19 25.49,25.49 0 0 0 -18.93,-8 26.09,26.09 0 0 0 -19.11,8.05 26.21,26.21 0 0 0 -8.06,19.14 z"
         id="path11" />
    </g>
  </g>
  <g
     id="g11"
     transform="matrix(1.8897394,0,-0.50635415,1.8897394,-452.53286,-0.41001225)"
     style="fill:#808080">
    <path
       style="font-weight:500;font-size:16px;font-family:'Noto Serif KR';-inkscape-font-specification:'Noto Serif KR Medium';word-spacing:0px;white-space:pre;inline-size:47.3954;fill:#808080"
       d="m 550.78491,16.45121 v -0.448 l 1.28,-0.112 q 0.016,-0.464 0.016,-1.024 0,-0.56 0,-1.104 0.016,-0.56 0.016,-0.992 v -8.24 l -1.36,-0.08 v -0.432 l 2.704,-0.512 0.24,0.144 -0.048,2.496 v 3.184 l 0.032,0.16 v 5.664 0.032 l -0.24,1.44 z m 5.424,0.24 q -0.768,0 -1.52,-0.384 -0.736,-0.384 -1.328,-1.248 h -0.176 l 0.224,-0.368 q 0.576,0.64 1.12,0.912 0.544,0.256 1.136,0.256 0.656,0 1.2,-0.336 0.56,-0.352 0.896,-1.152 0.336,-0.8 0.336,-2.176 0,-1.808 -0.672,-2.656 -0.672,-0.864 -1.728,-0.864 -0.368,0 -0.752,0.112 -0.384,0.096 -0.8,0.4 -0.416,0.288 -0.928,0.848 l -0.192,-0.464 h 0.24 q 0.656,-0.896 1.456,-1.296 0.816,-0.416 1.648,-0.416 0.992,0 1.744,0.528 0.768,0.528 1.2,1.504 0.448,0.96 0.448,2.32 0,1.296 -0.448,2.32 -0.448,1.008 -1.248,1.584 -0.8,0.576 -1.856,0.576 z m 9.24032,0 q -1.216,0 -2.16,-0.496 -0.944,-0.496 -1.488,-1.472 -0.528,-0.992 -0.528,-2.432 0,-1.376 0.56,-2.368 0.56,-0.992 1.488,-1.52 0.928,-0.544 2,-0.544 1.088,0 1.84,0.448 0.768,0.448 1.152,1.216 0.4,0.752 0.4,1.728 0,0.576 -0.096,0.96 h -6.64 v -0.512 h 4.48 q 0.448,0 0.608,-0.24 0.16,-0.24 0.16,-0.768 0,-1.04 -0.512,-1.664 -0.512,-0.64 -1.44,-0.64 -0.656,0 -1.2,0.432 -0.528,0.416 -0.848,1.248 -0.32,0.816 -0.32,2.016 0,1.296 0.384,2.144 0.4,0.832 1.072,1.216 0.672,0.384 1.552,0.384 0.848,0 1.456,-0.304 0.624,-0.304 1.088,-0.864 l 0.272,0.208 q -0.512,0.864 -1.344,1.344 -0.816,0.48 -1.936,0.48 z m 6.49602,-7.984 v -0.608 h 3.008 v 0.608 z m 1.264,7.984 q -1.04,0 -1.552,-0.528 -0.512,-0.544 -0.512,-1.664 0,-0.4 0,-0.72 0.016,-0.32 0.016,-0.768 v -4.304 h -1.536 v -0.496 l 1.872,-0.144 -0.304,0.224 0.56,-2.704 h 1.024 l -0.048,2.768 v 0.176 6.016 q 0,0.72 0.272,1.056 0.288,0.32 0.8,0.32 0.352,0 0.608,-0.112 0.272,-0.112 0.592,-0.32 l 0.24,0.288 q -0.336,0.448 -0.832,0.672 -0.496,0.24 -1.2,0.24 z m 5.216,0 q -0.96,0 -1.6,-0.544 -0.64,-0.544 -0.64,-1.552 0,-0.64 0.272,-1.136 0.288,-0.496 0.944,-0.88 0.656,-0.4 1.76,-0.72 0.656,-0.192 1.408,-0.384 0.752,-0.192 1.392,-0.352 v 0.4 q -0.64,0.16 -1.296,0.352 -0.64,0.176 -1.152,0.368 -0.976,0.368 -1.408,0.896 -0.416,0.512 -0.416,1.232 0,0.736 0.384,1.104 0.4,0.368 1.04,0.368 0.336,0 0.672,-0.128 0.336,-0.128 0.768,-0.464 0.432,-0.352 1.024,-0.96 l 0.16,0.784 h -0.432 q -0.48,0.528 -0.912,0.896 -0.432,0.352 -0.896,0.528 -0.464,0.192 -1.072,0.192 z m 4.32,-0.016 q -0.736,0 -1.12,-0.48 -0.368,-0.48 -0.432,-1.312 v -0.048 -4.224 q 0,-0.896 -0.192,-1.376 -0.192,-0.48 -0.592,-0.672 -0.384,-0.192 -1.008,-0.192 -0.448,0 -0.912,0.128 -0.448,0.112 -0.992,0.4 l 0.784,-0.432 -0.24,1.264 q -0.048,0.496 -0.288,0.704 -0.224,0.208 -0.544,0.208 -0.64,0 -0.784,-0.624 0.208,-1.008 1.088,-1.584 0.896,-0.576 2.352,-0.576 1.456,0 2.144,0.688 0.688,0.688 0.688,2.224 v 4.016 q 0,0.688 0.16,0.944 0.176,0.256 0.48,0.256 0.192,0 0.352,-0.096 0.16,-0.096 0.368,-0.336 l 0.256,0.224 q -0.256,0.464 -0.656,0.672 -0.384,0.224 -0.912,0.224 z"
       id="text11"
       transform="matrix(1,0,0,0.95008731,-0.98707278,-3.1151881)"
       aria-label="beta" />
  </g>
</svg>
