<svg xmlns="http://www.w3.org/2000/svg" viewBox="0 0 570.74 576.22"><g id="레이어_2" data-name="레이어 2"><g id="격리_모드" data-name="격리 모드"><path d="M450.8,335.84a232.54,232.54,0,0,1-2,30.07l.53-4a226.25,226.25,0,0,1-15.61,57.38l1.52-3.58A227.78,227.78,0,0,1,406,465.93l2.34-3a228.82,228.82,0,0,1-40.84,40.84l3-2.35a227.55,227.55,0,0,1-50.2,29.31l3.59-1.51a226.73,226.73,0,0,1-57.39,15.61l4-.54a230.27,230.27,0,0,1-60.15,0l4,.54a226.73,226.73,0,0,1-57.39-15.61l3.59,1.51a227.55,227.55,0,0,1-50.2-29.31l3,2.35a229.09,229.09,0,0,1-40.83-40.84l2.34,3a227.78,227.78,0,0,1-29.31-50.2l1.52,3.58a226.25,226.25,0,0,1-15.61-57.38l.53,4a230.19,230.19,0,0,1,0-60.14l-.53,4a226.25,226.25,0,0,1,15.61-57.38L45.55,256a227.78,227.78,0,0,1,29.31-50.2l-2.34,3A229.09,229.09,0,0,1,113.35,168l-3,2.35A227.55,227.55,0,0,1,160.52,141l-3.59,1.51a226.73,226.73,0,0,1,57.39-15.61l-4,.54a230.27,230.27,0,0,1,60.15,0l-4-.54a226.73,226.73,0,0,1,57.39,15.61L320.29,141a227.55,227.55,0,0,1,50.2,29.31l-3-2.35a228.82,228.82,0,0,1,40.84,40.84l-2.34-3A227.78,227.78,0,0,1,435.26,256l-1.52-3.58a226.25,226.25,0,0,1,15.61,57.38l-.53-4a232.54,232.54,0,0,1,2,30.07c0,7.85,6.9,15.36,15,15s15-6.59,15-15a238.93,238.93,0,0,0-43.66-138.1,249.59,249.59,0,0,0-52-53.71A240,240,0,0,0,55.73,182a248.85,248.85,0,0,0-38.4,64.3A237.33,237.33,0,0,0,.69,318.17,240.36,240.36,0,0,0,140.16,554.32a249.69,249.69,0,0,0,35.56,13.12A250.32,250.32,0,0,0,214,574.71,240.34,240.34,0,0,0,455.3,443.64a236.79,236.79,0,0,0,22.37-69.45,255.3,255.3,0,0,0,3.13-38.35c0-7.85-6.9-15.36-15-15S450.82,327.43,450.8,335.84Z"/><path d="M540.74,261.64a231.06,231.06,0,0,1-2,30.08l.54-4a226.73,226.73,0,0,1-15.61,57.39l1.51-3.59a227.55,227.55,0,0,1-29.31,50.2l2.35-3a228.82,228.82,0,0,1-40.84,40.84l3-2.34a227.74,227.74,0,0,1-50.2,29.3l3.58-1.51a226.25,226.25,0,0,1-57.38,15.61l4-.54a229.32,229.32,0,0,1-60.14,0l4,.54A226.25,226.25,0,0,1,246.87,455l3.58,1.51a227.74,227.74,0,0,1-50.2-29.3l3,2.34a228.82,228.82,0,0,1-40.84-40.84l2.35,3a227.16,227.16,0,0,1-29.31-50.2l1.51,3.59a226.32,226.32,0,0,1-15.61-57.39l.54,4a230.27,230.27,0,0,1,0-60.15l-.54,4A226.21,226.21,0,0,1,137,178.17l-1.51,3.58a227.32,227.32,0,0,1,29.31-50.19l-2.35,3a229.48,229.48,0,0,1,40.84-40.84l-3,2.35a227.78,227.78,0,0,1,50.2-29.31l-3.58,1.51a226.23,226.23,0,0,1,57.38-15.6l-4,.53a230.19,230.19,0,0,1,60.14,0l-4-.53a226.23,226.23,0,0,1,57.38,15.6l-3.58-1.51a227.78,227.78,0,0,1,50.2,29.31l-3-2.35a229.48,229.48,0,0,1,40.84,40.84l-2.35-3a227.71,227.71,0,0,1,29.31,50.19l-1.51-3.58a226.62,226.62,0,0,1,15.61,57.39l-.54-4a230.79,230.79,0,0,1,2,30.07c0,7.85,6.89,15.37,15,15s15-6.59,15-15A240.85,240.85,0,0,0,559.22,188a237.91,237.91,0,0,0-32.15-64.41,249.6,249.6,0,0,0-52-53.72,240,240,0,0,0-329.44,38,249,249,0,0,0-38.39,64.3A237.71,237.71,0,0,0,90.62,244a240.87,240.87,0,0,0,6.2,75,238.09,238.09,0,0,0,27.66,66.9,241.18,241.18,0,0,0,105.61,94.25A232.35,232.35,0,0,0,304,500.52,240.35,240.35,0,0,0,379.3,497a237.6,237.6,0,0,0,68.07-25.34,241.15,241.15,0,0,0,97.86-102.23A237,237,0,0,0,567.6,300a255.44,255.44,0,0,0,3.14-38.36c0-7.84-6.91-15.36-15-15S540.75,253.23,540.74,261.64Z"/><path d="M121.8,59.15S81.44,54.58,81.44,0c0,54.58-40.35,59.15-40.35,59.15s40.35,4.57,40.35,59.16C81.44,63.72,121.8,59.15,121.8,59.15Z"/></g></g></svg>