<svg xmlns="http://www.w3.org/2000/svg" xmlns:xlink="http://www.w3.org/1999/xlink" viewBox="0 0 256.17 330.29"><defs><style>.cls-1{fill:url(#무제_그라디언트_5);}.cls-2{fill:url(#무제_그라디언트_5-2);}.cls-3{fill:url(#무제_그라디언트_5-3);}</style><linearGradient id="무제_그라디언트_5" y1="143.7" x2="205.75" y2="143.7" gradientUnits="userSpaceOnUse"><stop offset="0" stop-color="#97e6ab"/><stop offset="1" stop-color="#68e7fa"/></linearGradient><linearGradient id="무제_그라디언트_5-2" x1="38.48" y1="111.95" x2="244.25" y2="111.95" xlink:href="#무제_그라디언트_5"/><linearGradient id="무제_그라디언트_5-3" x1="17.57" y1="25.31" x2="52.11" y2="25.31" xlink:href="#무제_그라디언트_5"/></defs><g id="레이어_2" data-name="레이어 2"><g id="레이어_1-2" data-name="레이어 1"><g id="레이어_2-2" data-name="레이어 2"><g id="격리_모드" data-name="격리 모드"><path class="cls-1" d="M192.9,143.72a99,99,0,0,1-.86,12.87l.23-1.72a96.86,96.86,0,0,1-6.68,24.56l.65-1.53a97.62,97.62,0,0,1-12.51,21.49l1-1.29a97.72,97.72,0,0,1-17.48,17.48l1.29-1a97.74,97.74,0,0,1-21.49,12.54l1.54-.65A97,97,0,0,1,114,233.15l1.71-.23a98.14,98.14,0,0,1-25.74,0l1.71.23a97,97,0,0,1-24.56-6.68l1.54.65a97.44,97.44,0,0,1-21.48-12.54l1.28,1A97.66,97.66,0,0,1,31,198.1l1,1.29a97.51,97.51,0,0,1-12.54-21.48l.65,1.53a96.45,96.45,0,0,1-6.68-24.56l.22,1.71a98.94,98.94,0,0,1,0-25.73l-.22,1.71A96.37,96.37,0,0,1,20.13,108l-.65,1.53A97.28,97.28,0,0,1,32,88.07l-1,1.28A97.88,97.88,0,0,1,48.49,71.89l-1.28,1A97.06,97.06,0,0,1,68.68,60.34L67.14,61A96.56,96.56,0,0,1,91.7,54.31L90,54.54a98.14,98.14,0,0,1,25.74,0L114,54.31A96.56,96.56,0,0,1,138.58,61l-1.53-.65a97.05,97.05,0,0,1,21.48,12.54l-1.28-1a97.6,97.6,0,0,1,17.47,17.47l-1-1.28a97.47,97.47,0,0,1,12.53,21.48L185.6,108a96.9,96.9,0,0,1,6.68,24.55l-.23-1.71a100.8,100.8,0,0,1,.86,12.87,6.42,6.42,0,0,0,12.84,0,102.32,102.32,0,0,0-18.69-59.1,106.82,106.82,0,0,0-22.25-23,102.72,102.72,0,0,0-141,16.23A106.81,106.81,0,0,0,7.4,105.4,101.79,101.79,0,0,0,.28,136.16,102.86,102.86,0,0,0,60,237.21a107.25,107.25,0,0,0,15.22,5.62,107.29,107.29,0,0,0,16.38,3.11,102.86,102.86,0,0,0,103.26-56.09,101.36,101.36,0,0,0,9.58-29.72,110.06,110.06,0,0,0,1.34-16.41,6.42,6.42,0,0,0-12.84,0Z"/><path class="cls-2" d="M231.39,112a99,99,0,0,1-.86,12.87l.23-1.71a97,97,0,0,1-6.68,24.56l.65-1.54a97.44,97.44,0,0,1-12.54,21.48l1-1.28a97.33,97.33,0,0,1-17.48,17.47l1.29-1a97.51,97.51,0,0,1-21.48,12.54l1.53-.64a97.27,97.27,0,0,1-24.56,6.68l1.71-.24a98.07,98.07,0,0,1-25.73,0l1.71.24a96.81,96.81,0,0,1-24.55-6.69l1.53.65a97.67,97.67,0,0,1-21.48-12.54l1.28,1a97.66,97.66,0,0,1-17.47-17.48l1,1.29A97.35,97.35,0,0,1,58,146.14l.65,1.54a96.45,96.45,0,0,1-6.68-24.56l.23,1.71a98.14,98.14,0,0,1,0-25.74l-.23,1.71a96.81,96.81,0,0,1,6.69-24.55L58,77.78A97.05,97.05,0,0,1,70.51,56.3l-1,1.28A98,98,0,0,1,87,40.11l-1.28,1a97.44,97.44,0,0,1,21.48-12.54l-1.53.65a96.37,96.37,0,0,1,24.55-6.68l-1.71.23a98.14,98.14,0,0,1,25.74,0l-1.72-.23a96.45,96.45,0,0,1,24.56,6.68l-1.53-.65A97.91,97.91,0,0,1,197,41.11l-1.28-1a97.93,97.93,0,0,1,17.47,17.47l-1-1.28a97.44,97.44,0,0,1,12.54,21.48l-.65-1.53a96.37,96.37,0,0,1,6.68,24.55l-.23-1.71a99,99,0,0,1,.86,12.87c0,3.36,3,6.58,6.42,6.42a6.54,6.54,0,0,0,6.42-6.42,103.35,103.35,0,0,0-4.95-31.51,102.06,102.06,0,0,0-13.76-27.56,106.69,106.69,0,0,0-22.26-23,102.7,102.7,0,0,0-141,16.26A106.09,106.09,0,0,0,45.88,73.68a101.59,101.59,0,0,0-7.12,30.74,103.14,103.14,0,0,0,2.66,32.09,101.79,101.79,0,0,0,11.83,28.63,103.27,103.27,0,0,0,45.2,40.33,99.22,99.22,0,0,0,31.63,8.72,102.71,102.71,0,0,0,112.8-85.81A110.07,110.07,0,0,0,244.23,112c0-3.36-3-6.58-6.42-6.42A6.53,6.53,0,0,0,231.39,112Z"/><path class="cls-3" d="M52.11,25.31S34.84,23.36,34.84,0c0,23.36-17.27,25.31-17.27,25.31s17.27,2,17.27,25.32C34.84,27.27,52.11,25.31,52.11,25.31Z"/></g></g><path d="M.48,281.21H2.94l13.8,29.31,6.49-13.65L16,281.36h2.38l6,13.2,6.19-13.35h2.24l-7.31,15.66L32,310.67l13.65-29.39h2.16L31.88,315.59l-7.61-16.33-7.68,16.33Z"/><path d="M70.89,315.67h-.67a16.76,16.76,0,0,1-12.34-5.34,17.11,17.11,0,0,1-5.26-12.41,16.7,16.7,0,0,1,5.22-12.27,17.58,17.58,0,0,1,12.9-5.19A17.19,17.19,0,0,1,84,286.58L60.52,309.7c3.24,2.59,6.34,3.88,9.33,3.88a15.72,15.72,0,0,0,8-2.05,17.72,17.72,0,0,0,5.85-5.48v3.8A16.72,16.72,0,0,1,70.89,315.67Zm-.78-33.12A15.71,15.71,0,0,0,55,297.69a15.25,15.25,0,0,0,4,10.44l21.7-21.55A15.59,15.59,0,0,0,70.11,282.55Z"/><path d="M124.52,281.21v33.56h-2.38v-8.35a15.78,15.78,0,0,1-6.27,6.71,17.36,17.36,0,0,1-9,2.46,17.12,17.12,0,0,1-12.53-5.18,17.39,17.39,0,0,1,0-24.84,17.16,17.16,0,0,1,12.53-5.18,17.94,17.94,0,0,1,9.14,2.53,13.77,13.77,0,0,1,6.08,6.72v-8.43Zm-33,16.85A15.66,15.66,0,0,0,107,313.5a14.5,14.5,0,0,0,10.78-4.58,15.5,15.5,0,0,0,0-21.82A14.54,14.54,0,0,0,107,282.48a14.72,14.72,0,0,0-10.85,4.66A15.08,15.08,0,0,0,91.55,298.06Z"/><path d="M161.74,281.21h2.17l-16.49,34.53-16.56-34.53h2.61l14.17,29.46Z"/><path d="M172.16,273.59a2.3,2.3,0,0,1-2-1.09,2.79,2.79,0,0,1,0-2.87,2.36,2.36,0,0,1,2.33-1.08,2.29,2.29,0,0,1,2.23,1.08,2.84,2.84,0,0,1,0,2.87,2.34,2.34,0,0,1-2.28,1.08Zm.07-4a1.34,1.34,0,0,0-1.25.61,1.8,1.8,0,0,0,0,1.82,1.34,1.34,0,0,0,1.38.61h.1a1.34,1.34,0,0,0,1.38-.61,1.85,1.85,0,0,0,0-1.82,1.36,1.36,0,0,0-1.38-.6Z"/><rect x="171.21" y="281.28" width="2.39" height="33.49"/><path d="M185.91,314.77h-2.39V281.21h2.39V288q3.79-7.61,13-7.6a14.16,14.16,0,0,1,10.51,4.32,14.43,14.43,0,0,1,4.25,10.52v19.54h-2.38V295.23a12.58,12.58,0,0,0-3.62-9,11.62,11.62,0,0,0-8.76-3.8,12.62,12.62,0,0,0-9.07,3.8,12.08,12.08,0,0,0-3.91,9Z"/><path d="M253.78,281.21h2.39v30.43q0,8.66-4.77,13.65c-3.19,3.33-7.36,5-12.54,5a18.88,18.88,0,0,1-8.27-1.94,16.15,16.15,0,0,1-6.27-5.07v-3.44a15.39,15.39,0,0,0,6.08,6,16.77,16.77,0,0,0,8.46,2.39,14.11,14.11,0,0,0,10.75-4.44q4.17-4.44,4.17-12.12v-5a15.13,15.13,0,0,1-6.34,6.57,17.87,17.87,0,0,1-8.95,2.46A17.14,17.14,0,0,1,226,310.48a17.37,17.37,0,0,1,0-24.83,17.14,17.14,0,0,1,12.53-5.19,17.81,17.81,0,0,1,9.06,2.43,14.92,14.92,0,0,1,6.23,6.67Zm-30.65,16.85a15.66,15.66,0,0,0,15.47,15.52A14.5,14.5,0,0,0,249.38,309a15.56,15.56,0,0,0,0-21.85,14.5,14.5,0,0,0-10.78-4.59,15.66,15.66,0,0,0-15.47,15.51Z"/></g></g></svg>